<svg width="22" height="22" viewBox="0 0 22 22" fill="none" xmlns="http://www.w3.org/2000/svg">
<g clip-path="url(#clip0_13_1244)">
<path d="M8.39353 1.27006H10.5032C11.3023 1.27006 11.9683 1.84087 12.1205 2.59482H13.3239C13.1622 1.18206 11.9587 0.0808716 10.5032 0.0808716H8.39353C6.93797 0.0808716 5.73451 1.18206 5.57275 2.59482H6.77624C6.92845 1.83849 7.5944 1.27006 8.39353 1.27006Z" fill="#ADB3CC"/>
<path d="M3.02552 7.66791C4.7332 8.77148 7.01406 9.38034 9.44952 9.38034C11.885 9.38034 14.1635 8.77148 15.8735 7.66791C17.41 6.67612 18.3018 5.39418 18.4113 4.03613C17.9998 3.52002 17.3671 3.18942 16.6536 3.18942H13.3429H12.1537H6.74531H5.55612H2.24541C1.53428 3.18942 0.899252 3.52002 0.487793 4.03613C0.597198 5.39418 1.48909 6.67375 3.02552 7.66791Z" fill="#ADB3CC"/>
<path d="M8.63574 10.9667C8.63574 11.3378 8.9378 11.6398 9.30885 11.6398H9.58709C9.95814 11.6398 10.2602 11.3378 10.2602 10.9667V10.4292H8.63574V10.9667Z" fill="#ADB3CC"/>
<path d="M2.24519 14.6794H12.2225V13.1643C12.2225 12.9812 12.2962 12.8076 12.427 12.6792L14.7031 10.4411C14.8315 10.315 15.0028 10.2461 15.1812 10.2461H18.8962V5.77948C18.7963 5.98402 18.6822 6.18618 18.5514 6.38597C18.04 7.16845 17.3098 7.8677 16.387 8.46467C14.9529 9.39224 13.1572 9.99635 11.2117 10.227V10.4268V10.9643C11.2117 11.861 10.4839 12.5888 9.58722 12.5888H9.30897C8.41232 12.5888 7.68452 11.861 7.68452 10.9643V10.4268V10.227C5.739 9.9987 3.94333 9.39221 2.50917 8.46467C1.58635 7.8677 0.856192 7.16845 0.344841 6.38597C0.214054 6.18618 0.0998919 5.98402 0 5.77948V12.4342C0 13.6733 1.00605 14.6794 2.24519 14.6794Z" fill="#ADB3CC"/>
<path d="M15.6877 10.7883C15.369 10.7883 15.0574 10.9191 14.8315 11.1451L13.188 12.8005C12.9621 13.0288 12.8384 13.3285 12.8384 13.6495V14.6794V14.9767V15.274V20.7133C12.8384 20.7704 12.8431 20.8275 12.8503 20.8822C12.9311 21.4672 13.4354 21.9191 14.0442 21.9191H20.7941C21.4576 21.9191 21.9999 21.3793 21.9999 20.7133V11.9918C21.9999 11.4091 21.5861 10.9239 21.0366 10.8121C20.9582 10.7955 20.8773 10.7883 20.7964 10.7883H19.4907H19.1934H18.8961H15.6877ZM19.4907 11.9775H20.7941C20.8036 11.9775 20.8107 11.9847 20.8107 11.9942V20.7157C20.8107 20.7181 20.8107 20.7181 20.8107 20.7205C20.8083 20.7276 20.8036 20.7324 20.7964 20.7324C20.7964 20.7324 20.7964 20.7324 20.794 20.7324H14.0442C14.0347 20.7324 14.0276 20.7252 14.0276 20.7157V15.274V14.9767V14.6794V13.8945H14.9004C15.4451 13.8945 15.8875 13.4521 15.8875 12.9075V11.9775H18.8961H19.1934H19.4907Z" fill="#ADB3CC"/>
<path d="M17.838 14.6818H15.2479C15.0291 14.6818 14.8389 14.8007 14.7342 14.9767C14.6819 15.0647 14.6533 15.1645 14.6533 15.274V15.2764C14.6533 15.6045 14.9197 15.871 15.2479 15.871H19.5932C19.9214 15.871 20.1878 15.6045 20.1878 15.2764C20.1878 14.9481 19.9214 14.6818 19.5932 14.6818H18.3874H17.838Z" fill="#ADB3CC"/>
<path d="M19.5932 18.4277H15.2479C14.9197 18.4277 14.6533 18.6941 14.6533 19.0223C14.6533 19.3505 14.9197 19.6169 15.2479 19.6169H19.5932C19.9214 19.6169 20.1878 19.3505 20.1878 19.0223C20.1878 18.6941 19.9214 18.4277 19.5932 18.4277Z" fill="#ADB3CC"/>
<path d="M19.5932 16.5559H15.2479C14.9197 16.5559 14.6533 16.8223 14.6533 17.1505C14.6533 17.4787 14.9197 17.7451 15.2479 17.7451H19.5932C19.9214 17.7451 20.1878 17.4787 20.1878 17.1505C20.1878 16.8223 19.9214 16.5559 19.5932 16.5559Z" fill="#ADB3CC"/>
</g>
<defs>
<clipPath id="clip0_13_1244">
<rect width="22" height="22" fill="white"/>
</clipPath>
</defs>
</svg>
