<svg width="18" height="18" viewBox="0 0 18 18" fill="none" xmlns="http://www.w3.org/2000/svg">
<path opacity="0.4" d="M12.3962 0.666687H15.2178C16.3864 0.666687 17.3333 1.62156 17.3333 2.79999V5.64546C17.3333 6.82388 16.3864 7.77876 15.2178 7.77876H12.3962C11.2276 7.77876 10.2808 6.82388 10.2808 5.64546V2.79999C10.2808 1.62156 11.2276 0.666687 12.3962 0.666687Z" fill="#50556A"/>
<path fill-rule="evenodd" clip-rule="evenodd" d="M2.78194 0.666687H5.60358C6.77214 0.666687 7.71902 1.62156 7.71902 2.79999V5.64546C7.71902 6.82388 6.77214 7.77876 5.60358 7.77876H2.78194C1.61338 7.77876 0.666504 6.82388 0.666504 5.64546V2.79999C0.666504 1.62156 1.61338 0.666687 2.78194 0.666687ZM2.78194 10.2213H5.60358C6.77214 10.2213 7.71902 11.1762 7.71902 12.3546V15.2001C7.71902 16.3777 6.77214 17.3334 5.60358 17.3334H2.78194C1.61338 17.3334 0.666504 16.3777 0.666504 15.2001V12.3546C0.666504 11.1762 1.61338 10.2213 2.78194 10.2213ZM15.2177 10.2213H12.3961C11.2275 10.2213 10.2807 11.1762 10.2807 12.3546V15.2001C10.2807 16.3777 11.2275 17.3334 12.3961 17.3334H15.2177C16.3863 17.3334 17.3332 16.3777 17.3332 15.2001V12.3546C17.3332 11.1762 16.3863 10.2213 15.2177 10.2213Z" fill="#ADB3CC"/>
</svg>
