<svg width="18" height="16" viewBox="0 0 18 16" fill="none" xmlns="http://www.w3.org/2000/svg">
<path fill-rule="evenodd" clip-rule="evenodd" d="M17.3302 4.97927H13.8013C12.1591 4.98216 10.8287 6.27929 10.8258 7.88047C10.8235 9.48527 12.1554 10.7882 13.8013 10.7903H17.3332V11.0453C17.3332 13.8446 15.6361 15.5 12.7643 15.5H5.23613C2.36354 15.5 0.666504 13.8446 0.666504 11.0453V4.94822C0.666504 2.14885 2.36354 0.5 5.23613 0.5H12.7613C15.6332 0.5 17.3302 2.14885 17.3302 4.94822V4.97927ZM4.61613 4.97277H9.31613H9.3191H9.32502C9.67687 4.97133 9.96132 4.69182 9.95984 4.34804C9.95836 4.00498 9.67095 3.72765 9.3191 3.72909H4.61613C4.2665 3.73054 3.9828 4.00715 3.98132 4.34876C3.97984 4.69182 4.26428 4.97133 4.61613 4.97277Z" fill="#ADB3CC"/>
</svg>
