<svg width="20" height="20" viewBox="0 0 20 20" fill="none" xmlns="http://www.w3.org/2000/svg">
<path opacity="0.4" d="M13.6165 1.6665H6.3915C3.5665 1.6665 1.6665 3.64984 1.6665 6.59984V13.4082C1.6665 16.3498 3.5665 18.3332 6.3915 18.3332H13.6165C16.4415 18.3332 18.3332 16.3498 18.3332 13.4082V6.59984C18.3332 3.64984 16.4415 1.6665 13.6165 1.6665Z" fill="#ADB3CC"/>
<path fill-rule="evenodd" clip-rule="evenodd" d="M9.27077 6.82441C9.27077 7.22608 9.5966 7.55358 9.99577 7.55358C10.4066 7.55358 10.7333 7.22608 10.7333 6.82441C10.7333 6.42275 10.4066 6.09525 10.0041 6.09525C9.59994 6.09525 9.27077 6.42275 9.27077 6.82441ZM10.7249 9.46841C10.7249 9.06675 10.3974 8.73925 9.99577 8.73925C9.5941 8.73925 9.2666 9.06675 9.2666 9.46841V13.1517C9.2666 13.5534 9.5941 13.8809 9.99577 13.8809C10.3974 13.8809 10.7249 13.5534 10.7249 13.1517V9.46841Z" fill="#ADB3CC"/>
</svg>
