<svg width="20" height="20" viewBox="0 0 20 20" fill="none" xmlns="http://www.w3.org/2000/svg">
<path opacity="0.4" d="M9.99281 15.5179L4.58304 18.2201C4.1745 18.4418 3.6649 18.2938 3.4364 17.8869C3.36967 17.759 3.33438 17.6168 3.3335 17.4723V11.424C3.3335 12.0236 3.67161 12.3938 4.56099 12.8084L9.99281 15.5179Z" fill="#ADB3CC"/>
<path fill-rule="evenodd" clip-rule="evenodd" d="M7.41288 1.66666H12.558C14.8146 1.66666 16.6448 2.55503 16.6668 4.8278V17.4724C16.6659 17.6145 16.6306 17.7543 16.5639 17.8795C16.4568 18.0839 16.2718 18.2356 16.0514 18.2998C15.831 18.364 15.5942 18.3352 15.3952 18.2201L9.99281 15.5179L4.56099 12.8084C3.67161 12.3938 3.3335 12.0236 3.3335 11.424V4.8278C3.3335 2.55503 5.16371 1.66666 7.41288 1.66666ZM6.85426 8.01855H13.124C13.4853 8.01855 13.7782 7.72356 13.7782 7.35967C13.7782 6.99578 13.4853 6.70079 13.124 6.70079H6.85426C6.49297 6.70079 6.20009 6.99578 6.20009 7.35967C6.20009 7.72356 6.49297 8.01855 6.85426 8.01855Z" fill="#ADB3CC"/>
</svg>
