<svg width="16" height="18" viewBox="0 0 16 18" fill="none" xmlns="http://www.w3.org/2000/svg">
<path opacity="0.4" d="M13.6738 6.51752C13.2976 6.51752 12.7992 6.50919 12.1787 6.50919C10.6654 6.50919 9.42112 5.25669 9.42112 3.72919V1.04919C9.42112 0.838354 9.2528 0.666687 9.04404 0.666687H4.63619C2.57914 0.666687 0.916504 2.35502 0.916504 4.42419V13.4034C0.916504 15.5742 2.65835 17.3334 4.80782 17.3334H11.3717C13.4214 17.3334 15.0832 15.6559 15.0832 13.585V6.89252C15.0832 6.68085 14.9157 6.51002 14.7061 6.51085C14.3538 6.51335 13.9313 6.51752 13.6738 6.51752Z" fill="#ADB3CC"/>
<path opacity="0.4" d="M11.4034 1.13941C11.1542 0.880247 10.7192 1.05858 10.7192 1.41775V3.61525C10.7192 4.53691 11.4784 5.29525 12.4001 5.29525C12.9809 5.30191 13.7876 5.30358 14.4726 5.30191C14.8234 5.30108 15.0017 4.88191 14.7584 4.62858C13.8792 3.71441 12.3051 2.07608 11.4034 1.13941Z" fill="#ADB3CC"/>
<path fill-rule="evenodd" clip-rule="evenodd" d="M5.47791 8.48967H8.29874C8.64124 8.48967 8.91958 8.21217 8.91958 7.86967C8.91958 7.52717 8.64124 7.24884 8.29874 7.24884H5.47791C5.13541 7.24884 4.85791 7.52717 4.85791 7.86967C4.85791 8.21217 5.13541 8.48967 5.47791 8.48967ZM5.47799 12.6515H10.0147C10.3572 12.6515 10.6355 12.374 10.6355 12.0315C10.6355 11.689 10.3572 11.4107 10.0147 11.4107H5.47799C5.13549 11.4107 4.85799 11.689 4.85799 12.0315C4.85799 12.374 5.13549 12.6515 5.47799 12.6515Z" fill="#ADB3CC"/>
</svg>
