<svg width="16" height="18" viewBox="0 0 16 18" fill="none" xmlns="http://www.w3.org/2000/svg">
<path d="M8.00994 11.3584C6.67288 11.3584 5.59131 10.3168 5.59131 9.00842C5.59131 7.70009 6.67288 6.65009 8.00994 6.65009C9.347 6.65009 10.403 7.70009 10.403 9.00842C10.403 10.3168 9.347 11.3584 8.00994 11.3584Z" fill="#ADB3CC"/>
<path opacity="0.4" d="M15.6915 10.9751C15.5296 10.7251 15.2997 10.4751 15.0016 10.3167C14.7632 10.2001 14.6099 10.0084 14.4736 9.78341C14.0393 9.06675 14.2948 8.12508 15.0187 7.70008C15.8703 7.22508 16.1428 6.16675 15.6489 5.34175L15.0783 4.35841C14.5928 3.53341 13.5283 3.24175 12.6852 3.72508C11.9358 4.12508 10.9734 3.85841 10.5391 3.15008C10.4028 2.91675 10.3262 2.66675 10.3432 2.41675C10.3688 2.09175 10.2666 1.78341 10.1133 1.53341C9.79816 1.01675 9.22757 0.666748 8.59736 0.666748H7.39656C6.77487 0.683415 6.20428 1.01675 5.88918 1.53341C5.72737 1.78341 5.63369 2.09175 5.65072 2.41675C5.66775 2.66675 5.5911 2.91675 5.45484 3.15008C5.02051 3.85841 4.05817 4.12508 3.31725 3.72508C2.46562 3.24175 1.4096 3.53341 0.91565 4.35841L0.345057 5.34175C-0.140373 6.16675 0.132149 7.22508 0.975264 7.70008C1.69915 8.12508 1.95464 9.06675 1.52882 9.78341C1.38405 10.0084 1.23075 10.2001 0.992297 10.3167C0.702742 10.4751 0.447253 10.7251 0.310992 10.9751C-0.00411185 11.4917 0.0129208 12.1417 0.328024 12.6834L0.91565 13.6834C1.23075 14.2167 1.81838 14.5501 2.43155 14.5501C2.72111 14.5501 3.06176 14.4667 3.33428 14.3001C3.54719 14.1584 3.80268 14.1084 4.08372 14.1084C4.92683 14.1084 5.63369 14.8001 5.65072 15.6251C5.65072 16.5834 6.43422 17.3334 7.42211 17.3334H8.58033C9.55971 17.3334 10.3432 16.5834 10.3432 15.6251C10.3688 14.8001 11.0756 14.1084 11.9187 14.1084C12.1912 14.1084 12.4467 14.1584 12.6682 14.3001C12.9407 14.4667 13.2728 14.5501 13.5709 14.5501C14.1755 14.5501 14.7632 14.2167 15.0783 13.6834L15.6744 12.6834C15.981 12.1251 16.0066 11.4917 15.6915 10.9751Z" fill="#ADB3CC"/>
</svg>
